<svg width="49" height="48" viewBox="0 0 49 48" fill="none" xmlns="http://www.w3.org/2000/svg">
<path d="M35.9841 13H36.0041M14.9841 4H34.9841C40.507 4 44.9841 8.47715 44.9841 14V34C44.9841 39.5228 40.507 44 34.9841 44H14.9841C9.46128 44 4.98413 39.5228 4.98413 34V14C4.98413 8.47715 9.46128 4 14.9841 4ZM32.9841 22.74C33.231 24.4045 32.9466 26.1044 32.1716 27.598C31.3966 29.0916 30.1704 30.3028 28.6674 31.0593C27.1643 31.8159 25.461 32.0792 23.7997 31.8119C22.1384 31.5445 20.6037 30.7602 19.4138 29.5703C18.224 28.3805 17.4396 26.8457 17.1723 25.1844C16.9049 23.5231 17.1683 21.8198 17.9248 20.3167C18.6813 18.8137 19.8925 17.5875 21.3861 16.8125C22.8797 16.0375 24.5796 15.7532 26.2441 16C27.942 16.2518 29.5138 17.0429 30.7275 18.2566C31.9412 19.4703 32.7324 21.0422 32.9841 22.74Z" stroke="#0F6400" stroke-width="4" stroke-linecap="round" stroke-linejoin="round"/>
</svg>
