<svg width="49" height="48" viewBox="0 0 49 48" fill="none" xmlns="http://www.w3.org/2000/svg">
<path d="M42.9841 20C42.9841 34 24.9841 46 24.9841 46C24.9841 46 6.98413 34 6.98413 20C6.98413 15.2261 8.88055 10.6477 12.2562 7.27208C15.6319 3.89642 20.2102 2 24.9841 2C29.758 2 34.3364 3.89642 37.7121 7.27208C41.0877 10.6477 42.9841 15.2261 42.9841 20Z" stroke="#0F6400" stroke-width="4" stroke-linecap="round" stroke-linejoin="round"/>
<path d="M24.9841 26C28.2978 26 30.9841 23.3137 30.9841 20C30.9841 16.6863 28.2978 14 24.9841 14C21.6704 14 18.9841 16.6863 18.9841 20C18.9841 23.3137 21.6704 26 24.9841 26Z" stroke="#0F6400" stroke-width="4" stroke-linecap="round" stroke-linejoin="round"/>
</svg>
